<?xml version="1.0" encoding="UTF-8"?>
<svg id="Layer_1" xmlns="http://www.w3.org/2000/svg" version="1.1" viewBox="0 0 261.8 226.7">
  <!-- Generator: Adobe Illustrator 29.8.1, SVG Export Plug-In . SVG Version: 2.1.1 Build 2)  -->
  <defs>
    <style>
      .st0 {
        fill: #34495e;
      }

      .st1 {
        fill: #41b883;
      }
    </style>
  </defs>
  <path class="st1" d="M52.7,218.6l12.8-44.2,12.1,41.9c1.8,6.2,7.4,10.4,13.9,10.4h39.5v-28.4L70.2,16.6c-2.6-9.2-7-9.2-9.6,0L1.8,220.3c-1,3.5,1.1,6.4,4.8,6.4h35.2c5,0,9.4-3.3,10.8-8.1Z"/>
  <path class="st0" d="M51.4,223.1l9.3-32.1c2.6-9.2,7-9.2,9.6,0l9.3,32.1c.6,2,2.7,3.6,4.8,3.6h20.4l-34.5-119.4c-2.6-9.2-7-9.2-9.6,0l-34.5,119.4h20.4c2.1,0,4.2-1.6,4.8-3.6Z"/>
  <path class="st1" d="M183.6,218.3l12.7-44,13.4,46.5c1,3.5,4.2,5.8,7.8,5.8h37.6c3.7,0,5.8-2.9,4.8-6.4L201.1,16.6c-2.6-9.2-7-9.2-9.6,0l-60.6,181.6v28.4h41.6c5.2,0,9.7-3.4,11.2-8.4Z"/>
  <path class="st0" d="M182.2,223.1l9.3-32.1c2.6-9.2,7-9.2,9.6,0l9.3,32.1c.6,2,2.7,3.6,4.8,3.6h20.4l-34.5-119.4c-2.6-9.2-7-9.2-9.6,0l-34.5,119.4h20.4c2.1,0,4.2-1.6,4.8-3.6Z"/>
</svg>